<svg width="1437" height="1044" viewBox="0 0 1437 1044" fill="none" xmlns="http://www.w3.org/2000/svg">
<g id="undraw_Ride_a_bicycle_2yok 1" clip-path="url(#clip0)">
<g id="Vector" opacity="0.1">
<path d="M1388.17 545.626L1388.16 545.628C1370.3 572.811 1347.72 596.731 1321.44 616.309C1298.12 633.5 1272.76 646.244 1246.9 658.038C1239.7 661.321 1232.46 664.531 1225.22 667.743C1206.45 676.065 1187.65 684.403 1169.44 694.058C1114.08 723.392 1064.49 764.662 1015 805.846C1011.98 808.36 1008.96 810.873 1005.94 813.384C953.408 857.038 900.598 899.77 840.677 927.336C762.566 963.264 674.715 971.139 592.633 949.57C589.476 948.736 586.282 947.865 583.061 946.987C568.54 943.026 553.467 938.914 538.77 937.381C520.796 935.505 503.309 937.474 487.984 948.316C481.466 952.927 475.881 958.86 470.485 965.014C469.251 966.421 468.027 967.84 466.805 969.257C462.67 974.049 458.547 978.828 454.07 983.129C436.315 1000.18 413.763 1009.05 391.659 1017.6C366.355 1027.39 340.376 1037.24 313.879 1035.26C283.788 1033.01 256.284 1015.75 230.325 997.92C191.627 971.338 154.088 942.833 117.707 912.405C94.3758 892.877 70.2417 870.257 63.1362 838.52C57.375 812.741 63.7933 787.93 73.3705 763.099C76.5392 754.883 80.0464 746.683 83.5687 738.447C85.3716 734.231 87.1785 730.006 88.946 725.765C94.1616 713.251 99.0243 700.619 102.382 687.764C114.196 642.559 106.16 591.236 81.3669 553.462C78.4799 549.055 75.3496 544.753 72.2228 540.455L72.0094 540.162C68.8091 535.763 65.6177 531.367 62.6821 526.844C56.8118 517.801 51.9852 508.286 50.1941 497.344C46.8688 476.976 54.4484 459.15 66.73 443.523C79.0177 427.888 95.9753 414.503 111.314 403.039C183.816 348.863 247.51 272.995 273.361 178.644C273.645 177.608 273.927 176.568 274.208 175.527C277.118 164.762 280.072 153.832 286.78 145.864C296.871 133.879 310.922 128.034 327.199 125.969C343.484 123.902 361.957 125.624 380.831 128.742C393.004 130.753 405.314 133.339 417.299 135.857C423.903 137.244 430.408 138.611 436.738 139.849C454.523 143.329 470.914 145.793 484.045 144.79L484.046 144.79C520.841 141.892 555.94 121.369 590.008 97.5671C599.363 91.0311 608.639 84.2494 617.854 77.5127C642.24 59.6838 666.195 42.1702 690.044 30.362C737.878 6.67781 790.522 -6.22265 844.114 -7.39246C897.706 -8.56227 950.885 2.0282 999.75 23.6015C1028.38 36.2786 1055.64 52.5722 1082.92 68.8787C1084.41 69.7717 1085.9 70.6647 1087.4 71.5573C1116.17 88.7404 1145.04 105.717 1175.61 118.208C1195.47 126.32 1216.08 132.562 1236.63 138.788C1246.69 141.837 1256.75 144.881 1266.69 148.14C1296.97 158.06 1326.3 169.975 1352.22 190.039C1400.63 227.523 1431.49 291.541 1436.99 358.006C1442.5 424.466 1423.43 492.37 1388.17 545.626Z" fill="#C4C4C4"/>
<path d="M1388.17 545.626L1388.16 545.628C1370.3 572.811 1347.72 596.731 1321.44 616.309C1298.12 633.5 1272.76 646.244 1246.9 658.038C1239.7 661.321 1232.46 664.531 1225.22 667.743C1206.45 676.065 1187.65 684.403 1169.44 694.058C1114.08 723.392 1064.49 764.662 1015 805.846C1011.98 808.36 1008.96 810.873 1005.94 813.384C953.408 857.038 900.598 899.77 840.677 927.336C762.566 963.264 674.715 971.139 592.633 949.57C589.476 948.736 586.282 947.865 583.061 946.987C568.54 943.026 553.467 938.914 538.77 937.381C520.796 935.505 503.309 937.474 487.984 948.316C481.466 952.927 475.881 958.86 470.485 965.014C469.251 966.421 468.027 967.84 466.805 969.257C462.67 974.049 458.547 978.828 454.07 983.129C436.315 1000.18 413.763 1009.05 391.659 1017.6C366.355 1027.39 340.376 1037.24 313.879 1035.26C283.788 1033.01 256.284 1015.75 230.325 997.92C191.627 971.338 154.088 942.833 117.707 912.405C94.3758 892.877 70.2417 870.257 63.1362 838.52C57.375 812.741 63.7933 787.93 73.3705 763.099C76.5392 754.883 80.0464 746.683 83.5687 738.447C85.3716 734.231 87.1785 730.006 88.946 725.765C94.1616 713.251 99.0243 700.619 102.382 687.764C114.196 642.559 106.16 591.236 81.3669 553.462C78.4799 549.055 75.3496 544.753 72.2228 540.455L72.0094 540.162C68.8091 535.763 65.6177 531.367 62.6821 526.844C56.8118 517.801 51.9852 508.286 50.1941 497.344C46.8688 476.976 54.4484 459.15 66.73 443.523C79.0177 427.888 95.9753 414.503 111.314 403.039C183.816 348.863 247.51 272.995 273.361 178.644C273.645 177.608 273.927 176.568 274.208 175.527C277.118 164.762 280.072 153.832 286.78 145.864C296.871 133.879 310.922 128.034 327.199 125.969C343.484 123.902 361.957 125.624 380.831 128.742C393.004 130.753 405.314 133.339 417.299 135.857C423.903 137.244 430.408 138.611 436.738 139.849C454.523 143.329 470.914 145.793 484.045 144.79L484.046 144.79C520.841 141.892 555.94 121.369 590.008 97.5671C599.363 91.0311 608.639 84.2494 617.854 77.5127C642.24 59.6838 666.195 42.1702 690.044 30.362C737.878 6.67781 790.522 -6.22265 844.114 -7.39246C897.706 -8.56227 950.885 2.0282 999.75 23.6015C1028.38 36.2786 1055.64 52.5722 1082.92 68.8787C1084.41 69.7717 1085.9 70.6647 1087.4 71.5573C1116.17 88.7404 1145.04 105.717 1175.61 118.208C1195.47 126.32 1216.08 132.562 1236.63 138.788C1246.69 141.837 1256.75 144.881 1266.69 148.14C1296.97 158.06 1326.3 169.975 1352.22 190.039C1400.63 227.523 1431.49 291.541 1436.99 358.006C1442.5 424.466 1423.43 492.37 1388.17 545.626Z" fill="url(#paint0_linear)"/>
<path d="M1388.17 545.626L1388.16 545.628C1370.3 572.811 1347.72 596.731 1321.44 616.309C1298.12 633.5 1272.76 646.244 1246.9 658.038C1239.7 661.321 1232.46 664.531 1225.22 667.743C1206.45 676.065 1187.65 684.403 1169.44 694.058C1114.08 723.392 1064.49 764.662 1015 805.846C1011.98 808.36 1008.96 810.873 1005.94 813.384C953.408 857.038 900.598 899.77 840.677 927.336C762.566 963.264 674.715 971.139 592.633 949.57C589.476 948.736 586.282 947.865 583.061 946.987C568.54 943.026 553.467 938.914 538.77 937.381C520.796 935.505 503.309 937.474 487.984 948.316C481.466 952.927 475.881 958.86 470.485 965.014C469.251 966.421 468.027 967.84 466.805 969.257C462.67 974.049 458.547 978.828 454.07 983.129C436.315 1000.18 413.763 1009.05 391.659 1017.6C366.355 1027.39 340.376 1037.24 313.879 1035.26C283.788 1033.01 256.284 1015.75 230.325 997.92C191.627 971.338 154.088 942.833 117.707 912.405C94.3758 892.877 70.2417 870.257 63.1362 838.52C57.375 812.741 63.7933 787.93 73.3705 763.099C76.5392 754.883 80.0464 746.683 83.5687 738.447C85.3716 734.231 87.1785 730.006 88.946 725.765C94.1616 713.251 99.0243 700.619 102.382 687.764C114.196 642.559 106.16 591.236 81.3669 553.462C78.4799 549.055 75.3496 544.753 72.2228 540.455L72.0094 540.162C68.8091 535.763 65.6177 531.367 62.6821 526.844C56.8118 517.801 51.9852 508.286 50.1941 497.344C46.8688 476.976 54.4484 459.15 66.73 443.523C79.0177 427.888 95.9753 414.503 111.314 403.039C183.816 348.863 247.51 272.995 273.361 178.644C273.645 177.608 273.927 176.568 274.208 175.527C277.118 164.762 280.072 153.832 286.78 145.864C296.871 133.879 310.922 128.034 327.199 125.969C343.484 123.902 361.957 125.624 380.831 128.742C393.004 130.753 405.314 133.339 417.299 135.857C423.903 137.244 430.408 138.611 436.738 139.849C454.523 143.329 470.914 145.793 484.045 144.79L484.046 144.79C520.841 141.892 555.94 121.369 590.008 97.5671C599.363 91.0311 608.639 84.2494 617.854 77.5127C642.24 59.6838 666.195 42.1702 690.044 30.362C737.878 6.67781 790.522 -6.22265 844.114 -7.39246C897.706 -8.56227 950.885 2.0282 999.75 23.6015C1028.38 36.2786 1055.64 52.5722 1082.92 68.8787C1084.41 69.7717 1085.9 70.6647 1087.4 71.5573C1116.17 88.7404 1145.04 105.717 1175.61 118.208C1195.47 126.32 1216.08 132.562 1236.63 138.788C1246.69 141.837 1256.75 144.881 1266.69 148.14C1296.97 158.06 1326.3 169.975 1352.22 190.039C1400.63 227.523 1431.49 291.541 1436.99 358.006C1442.5 424.466 1423.43 492.37 1388.17 545.626Z" stroke="black"/>
<path d="M1388.17 545.626L1388.16 545.628C1370.3 572.811 1347.72 596.731 1321.44 616.309C1298.12 633.5 1272.76 646.244 1246.9 658.038C1239.7 661.321 1232.46 664.531 1225.22 667.743C1206.45 676.065 1187.65 684.403 1169.44 694.058C1114.08 723.392 1064.49 764.662 1015 805.846C1011.98 808.36 1008.96 810.873 1005.94 813.384C953.408 857.038 900.598 899.77 840.677 927.336C762.566 963.264 674.715 971.139 592.633 949.57C589.476 948.736 586.282 947.865 583.061 946.987C568.54 943.026 553.467 938.914 538.77 937.381C520.796 935.505 503.309 937.474 487.984 948.316C481.466 952.927 475.881 958.86 470.485 965.014C469.251 966.421 468.027 967.84 466.805 969.257C462.67 974.049 458.547 978.828 454.07 983.129C436.315 1000.18 413.763 1009.05 391.659 1017.6C366.355 1027.39 340.376 1037.24 313.879 1035.26C283.788 1033.01 256.284 1015.75 230.325 997.92C191.627 971.338 154.088 942.833 117.707 912.405C94.3758 892.877 70.2417 870.257 63.1362 838.52C57.375 812.741 63.7933 787.93 73.3705 763.099C76.5392 754.883 80.0464 746.683 83.5687 738.447C85.3716 734.231 87.1785 730.006 88.946 725.765C94.1616 713.251 99.0243 700.619 102.382 687.764C114.196 642.559 106.16 591.236 81.3669 553.462C78.4799 549.055 75.3496 544.753 72.2228 540.455L72.0094 540.162C68.8091 535.763 65.6177 531.367 62.6821 526.844C56.8118 517.801 51.9852 508.286 50.1941 497.344C46.8688 476.976 54.4484 459.15 66.73 443.523C79.0177 427.888 95.9753 414.503 111.314 403.039C183.816 348.863 247.51 272.995 273.361 178.644C273.645 177.608 273.927 176.568 274.208 175.527C277.118 164.762 280.072 153.832 286.78 145.864C296.871 133.879 310.922 128.034 327.199 125.969C343.484 123.902 361.957 125.624 380.831 128.742C393.004 130.753 405.314 133.339 417.299 135.857C423.903 137.244 430.408 138.611 436.738 139.849C454.523 143.329 470.914 145.793 484.045 144.79L484.046 144.79C520.841 141.892 555.94 121.369 590.008 97.5671C599.363 91.0311 608.639 84.2494 617.854 77.5127C642.24 59.6838 666.195 42.1702 690.044 30.362C737.878 6.67781 790.522 -6.22265 844.114 -7.39246C897.706 -8.56227 950.885 2.0282 999.75 23.6015C1028.38 36.2786 1055.64 52.5722 1082.92 68.8787C1084.41 69.7717 1085.9 70.6647 1087.4 71.5573C1116.17 88.7404 1145.04 105.717 1175.61 118.208C1195.47 126.32 1216.08 132.562 1236.63 138.788C1246.69 141.837 1256.75 144.881 1266.69 148.14C1296.97 158.06 1326.3 169.975 1352.22 190.039C1400.63 227.523 1431.49 291.541 1436.99 358.006C1442.5 424.466 1423.43 492.37 1388.17 545.626Z" stroke="url(#paint1_linear)"/>
</g>
<g id="left-wheel">
<path id="Vector_2" d="M346.758 953.575L338.239 823.318L338.063 823.039L329.476 825.965L289.968 938.813L227.132 895.203L327.221 824.169L327.316 823.89L327.887 823.69L334.34 819.102L229.401 761.501L203.696 789.164L207.772 815.099L328.444 817.253V819.913L205.517 817.759L200.87 788.313L236.058 750.462L288.704 690.348L289.642 692.835L300.782 680.865L342.166 688.127V686.517L344.883 686.597V688.605L406.509 699.405L349.054 811.934L340.671 817.878V818.543V819.288L473.543 773.963L457.769 895.269L345.005 824.954L341.038 822.773L407.528 927.681L346.758 953.575ZM341.323 828.106L349.271 949.639L403.683 926.524L341.323 828.106ZM231.847 895.176L288.623 934.583L325.767 828.532L231.847 895.176ZM343.687 821.15L346.527 822.706L455.691 890.801L470.364 777.926L343.687 821.15ZM334.041 811.574L337.451 816.961L338.049 816.535L342.125 690.813L301.72 683.738L290.634 695.707L334.041 811.574ZM231.575 759.626L333.253 815.485L331.487 812.652L288.582 697.915L238.055 752.271L231.575 759.626ZM344.883 691.279L340.807 814.593L346.948 810.231L402.528 701.413L344.883 691.279Z" fill="#535461"/>
<path id="Vector_3" d="M495.783 784.616C490.335 760.917 479.304 738.792 463.571 720.006C457.73 713.025 451.29 706.546 444.319 700.642C417.519 677.991 383.794 664.692 348.438 662.832C313.082 660.972 278.096 670.657 248.97 690.367C219.845 710.077 198.229 738.695 187.515 771.731C176.802 804.767 177.596 840.35 189.775 872.896C201.953 905.442 224.826 933.109 254.803 951.554C284.781 969.999 320.166 978.178 355.405 974.807C390.645 971.437 423.743 956.708 449.507 932.932C475.27 909.156 492.24 877.679 497.753 843.44C499.036 835.38 499.681 827.234 499.683 819.075C499.692 807.483 498.384 795.925 495.783 784.616ZM339.285 936.698C314.515 936.673 290.354 929.18 270.087 915.238C249.82 901.297 234.431 881.583 226.012 858.778C217.594 835.973 216.555 811.184 223.036 787.78C229.517 764.377 243.204 743.495 262.235 727.974C281.267 712.454 304.72 703.048 329.405 701.036C354.09 699.023 378.809 704.502 400.201 716.727C421.593 728.951 438.62 747.329 448.966 769.361C459.313 791.392 462.476 816.009 458.028 839.863C452.932 867.052 438.26 891.631 416.565 909.324C394.869 927.017 367.523 936.704 339.285 936.698V936.698Z" fill="#535461"/>
<path id="Vector_4" opacity="0.1" d="M341.473 835.58C351.084 835.58 358.876 827.953 358.876 818.543C358.876 809.134 351.084 801.507 341.473 801.507C331.861 801.507 324.069 809.134 324.069 818.543C324.069 827.953 331.861 835.58 341.473 835.58Z" fill="black"/>
<path id="Vector_5" d="M339.285 835.58C348.897 835.58 356.689 827.953 356.689 818.543C356.689 809.134 348.897 801.507 339.285 801.507C329.673 801.507 321.881 809.134 321.881 818.543C321.881 827.953 329.673 835.58 339.285 835.58Z" fill="#535461"/>
</g>
<g id="right-wheel">
<path id="Vector_6" d="M925.881 959.43L917.376 829.226L917.199 828.947L908.613 831.873L869.091 944.667L806.255 901.044L906.371 830.011L906.466 829.731L907.037 829.532L913.49 824.944L808.551 767.343L782.833 795.006L786.909 820.94L907.553 823.042V825.702L784.626 823.547L780.007 794.141L815.181 756.304L867.787 696.229L868.724 698.716L879.865 686.746L921.357 694.021V692.412L924.074 692.492V694.5L985.7 705.299L928.191 817.881L919.808 823.826V824.491V825.236L1052.69 779.911L1036.92 901.217L924.155 830.902L920.188 828.721L986.679 933.642L925.881 959.43ZM920.446 833.961L928.394 955.493L982.807 932.379L920.446 833.961ZM810.983 901.044L867.76 940.451L904.904 834.4L810.983 901.044ZM922.824 827.018L925.663 828.574L1034.83 896.669L1049.5 783.794L922.824 827.018ZM913.178 817.443L916.588 822.829L917.186 822.403L921.262 696.681L880.857 689.579L869.77 701.549L913.178 817.443ZM810.752 765.507L912.431 821.366L910.664 818.533L867.76 703.797L817.219 758.166L810.752 765.507ZM924.02 697.16L919.944 820.435L926.085 816.073L981.665 707.254L924.02 697.16Z" fill="#535461"/>
<path id="Vector_7" opacity="0.1" d="M917.237 833.984C926.849 833.984 934.641 826.357 934.641 816.948C934.641 807.538 926.849 799.911 917.237 799.911C907.625 799.911 899.833 807.538 899.833 816.948C899.833 826.357 907.625 833.984 917.237 833.984Z" fill="black"/>
<path id="Vector_8" d="M916.829 671.638C902.409 671.622 888.054 673.519 874.155 677.277C866.986 679.212 859.967 681.643 853.151 684.552C816.835 699.963 787.648 728.011 771.236 763.27C754.825 798.53 752.355 838.495 764.304 875.434C776.254 912.373 801.773 943.661 835.926 963.245C870.08 982.83 910.439 989.319 949.197 981.457C987.955 973.595 1022.36 951.941 1045.75 920.684C1069.14 889.427 1079.86 850.788 1075.83 812.242C1071.8 773.697 1053.31 737.983 1023.94 712.011C994.565 686.039 956.396 671.653 916.815 671.638H916.829ZM916.285 945.732C888.731 945.721 862.01 936.484 840.56 919.554C819.109 902.624 804.22 879.021 798.365 852.664C792.509 826.307 796.041 798.782 808.372 774.661C820.703 750.54 841.092 731.274 866.152 720.062C872.527 717.205 879.146 714.905 885.934 713.186C902.525 708.97 919.844 708.262 936.737 711.108C953.63 713.954 969.71 720.29 983.907 729.693C998.105 739.096 1010.09 751.352 1019.08 765.644C1028.06 779.936 1033.83 795.936 1036 812.581C1038.17 829.226 1036.7 846.133 1031.68 862.177C1026.66 878.221 1018.21 893.034 1006.88 905.631C995.556 918.228 981.621 928.319 966.003 935.233C950.384 942.148 933.44 945.726 916.299 945.732H916.285Z" fill="#535461"/>
<path id="Vector_9" d="M918.324 836.112C927.936 836.112 935.728 828.485 935.728 819.075C935.728 809.666 927.936 802.039 918.324 802.039C908.712 802.039 900.92 809.666 900.92 819.075C900.92 828.485 908.712 836.112 918.324 836.112Z" fill="#535461"/>
</g>
<g id="man-bike">
<path id="Vector_10" d="M525.781 737.207L467.759 681.156L449.628 699.143L507.649 755.193L525.781 737.207Z" fill="#0097FF"/>
<path id="Vector_11" d="M612.026 583.844C612.026 583.844 675.88 585.174 692.184 598.473L684.032 437.547H595.723L612.026 583.844Z" fill="#ABB1D1"/>
<path id="Vector_12" opacity="0.1" d="M525.781 737.207L467.759 681.156L449.628 699.143L507.649 755.193L525.781 737.207Z" fill="black"/>
<path id="Vector_13" d="M481.6 654.332C481.6 654.332 515.279 636.936 528.295 625.738C536.13 619.027 544.554 613.006 553.47 607.743L595.723 582.567L684.032 575.917L688.108 590.547C688.108 590.547 694.901 611.826 626.971 630.446C559.04 649.065 525.075 678.325 525.075 678.325C525.075 678.325 481.6 692.901 481.6 654.332Z" fill="#DB8B8B"/>
<path id="Vector_14" opacity="0.1" d="M528.675 675.439C526.271 677.234 525.075 678.271 525.075 678.271C525.075 678.271 481.6 692.901 481.6 654.332C481.6 654.332 483.705 653.242 487.034 651.419C490.397 656.78 495.108 661.207 500.716 664.279C506.325 667.35 512.644 668.962 519.07 668.962H523.676L528.675 675.439Z" fill="black"/>
<path id="Vector_15" opacity="0.05" d="M686.831 597.888C683.054 605.722 670.025 618.596 626.971 630.393C571.798 645.514 539.028 667.632 528.675 675.439C526.271 677.234 525.075 678.271 525.075 678.271C525.075 678.271 481.6 692.901 481.6 654.332C481.6 654.332 483.705 653.241 487.034 651.419C497.128 646.006 518.499 634.13 528.254 625.684C536.088 618.972 544.512 612.95 553.429 607.69L595.682 582.514L611.415 581.33L683.991 575.864L688.067 590.493C688.067 590.493 689.018 593.353 686.831 597.888Z" fill="black"/>
<path id="Vector_16" d="M482.279 645.687L446.276 668.962L551.704 755.41C551.704 755.41 567.192 746.1 559.04 735.46C559.04 735.46 531.868 712.851 530.509 680.931L522.358 670.292H517.752C509.964 670.293 502.368 667.926 496.014 663.518C489.659 659.111 484.86 652.88 482.279 645.687V645.687Z" fill="#ABB1D1"/>
<path id="Vector_17" opacity="0.1" d="M686.831 597.888C665.093 587.607 612.026 586.504 612.026 586.504L611.455 581.33L684.032 575.864L688.108 590.493C688.108 590.493 689.018 593.353 686.831 597.888Z" fill="black"/>
<path id="Vector_18" opacity="0.1" d="M887.959 704.685C881.172 706.403 874.552 708.704 868.178 711.561L855.19 676.037C862.006 673.128 869.025 670.697 876.194 668.762L887.959 704.685Z" fill="black"/>
<path id="Vector_19" opacity="0.05" d="M612.026 583.179C612.026 583.179 675.88 584.509 692.184 597.808L684.032 436.882H595.723L612.026 583.179Z" fill="black"/>
<path id="Vector_20" d="M663.327 485.373C663.327 485.373 823.167 480.053 826.428 500.282C829.689 520.51 666.588 511.985 666.588 511.985C666.588 511.985 653.545 499.204 663.327 485.373Z" fill="#535461"/>
<path id="Vector_21" opacity="0.05" d="M663.327 485.373C663.327 485.373 823.167 480.053 826.428 500.282C829.689 520.51 666.588 511.985 666.588 511.985C666.588 511.985 653.545 499.204 663.327 485.373Z" fill="black"/>
<path id="Vector_22" d="M533.933 566.275H505.66V806.84H533.933V566.275Z" fill="#0097FF"/>
<path id="Vector_23" opacity="0.1" d="M533.933 566.261V584.788C524.532 585.985 514.913 586.743 505.66 587.036V566.261H533.933Z" fill="black"/>
<path id="Vector_24" d="M531.814 546.325C527.847 546.025 523.901 545.505 519.994 544.769C504.669 541.896 466.03 535.872 455.636 546.099C442.594 558.867 446.941 581.224 481.735 584.416C516.529 587.607 576.335 579.096 588.305 566.315C588.305 566.261 566.662 548.945 531.814 546.325Z" fill="#535461"/>
<path id="Vector_25" d="M924.302 808.968L909.086 817.479L802.924 527.107L798.169 514.113L823.181 500.268L829.444 519.393L924.302 808.968Z" fill="#0097FF"/>
<path id="Vector_26" opacity="0.1" d="M829.444 519.393L802.924 527.107L798.169 514.113L823.181 500.268L829.444 519.393Z" fill="black"/>
<path id="Vector_27" d="M667.675 541.79L816.646 491.757C816.646 491.757 842.745 494.948 832.949 516.241L682.905 559.878C682.905 559.878 660.08 562.006 667.675 541.79Z" fill="#535461"/>
<path id="Vector_28" opacity="0.1" d="M499.683 819.075C499.681 827.234 499.036 835.38 497.753 843.441C484.711 842.523 471.233 841.193 458.028 839.863C460.961 824.048 460.596 807.816 456.954 792.144C469.82 789.484 482.958 786.943 495.783 784.643C498.382 795.943 499.69 807.492 499.683 819.075V819.075Z" fill="black"/>
<path id="Vector_29" opacity="0.1" d="M533.933 778.538V806.826H505.66V782.887C515.442 781.225 524.953 779.748 533.933 778.538Z" fill="black"/>
<path id="Vector_30" d="M351.255 818.583C351.255 818.583 579.61 760.065 598.087 782.395C616.564 804.725 636.141 834.543 578.563 845.183C520.986 855.823 346.948 827.082 346.948 827.082L351.255 818.583Z" fill="#0097FF"/>
<path id="Vector_31" d="M526.325 632.268L823.181 541.79L832.963 564.147L528.499 666.328L526.325 632.268Z" fill="#0097FF"/>
<path id="Vector_32" d="M614.403 774.907L828.615 568.403L840.571 585.426L636.141 794.059L614.403 774.907Z" fill="#0097FF"/>
<path id="Vector_33" d="M343.646 806.84L514.356 632.268L519.804 672.712L352.342 822.799L343.646 806.84Z" fill="#0097FF"/>
<path id="Vector_34" opacity="0.1" d="M463.571 720.006L434.551 746.007C429.412 739.549 423.602 733.63 417.215 728.345L444.306 700.642C451.281 706.546 457.726 713.024 463.571 720.006V720.006Z" fill="black"/>
<path id="Vector_35" opacity="0.1" d="M608.955 835.58C628.172 835.58 643.749 820.331 643.749 801.52C643.749 782.709 628.172 767.459 608.955 767.459C589.739 767.459 574.161 782.709 574.161 801.52C574.161 820.331 589.739 835.58 608.955 835.58Z" fill="black"/>
<path id="Vector_36" d="M611.143 835.58C630.359 835.58 645.937 820.331 645.937 801.52C645.937 782.709 630.359 767.459 611.143 767.459C591.927 767.459 576.349 782.709 576.349 801.52C576.349 820.331 591.927 835.58 611.143 835.58Z" fill="#535461"/>
<path id="Vector_37" d="M601.853 798.961L601.842 798.969C597.756 801.96 596.921 807.628 599.976 811.628L627.591 847.777C630.647 851.777 636.437 852.595 640.523 849.603L640.534 849.595C644.62 846.604 645.455 840.937 642.399 836.937L614.784 800.788C611.729 796.788 605.939 795.97 601.853 798.961Z" fill="#0097FF"/>
<path id="Vector_38" d="M768.266 328.489L765.032 368.535C764.66 373.607 764.728 378.702 765.236 383.763C765.657 388.245 765.236 396.092 760.753 408.061C754.996 423.352 752.021 439.512 751.963 455.807V501.386L720.715 496.066C720.715 496.066 722.073 432.227 716.639 421.587C711.204 410.948 720.715 316.52 720.715 316.52L768.266 328.489Z" fill="#DB8B8B"/>
<path id="Vector_39" opacity="0.05" d="M766.663 348.333L765.032 368.535C764.665 373.603 764.738 378.693 765.25 383.75C765.671 388.232 765.25 396.078 760.766 408.061C755.01 423.352 752.035 439.512 751.976 455.807V501.386L720.728 496.066C720.728 496.066 722.087 432.227 716.652 421.587C712.807 414.046 716.449 364.478 718.908 336.19C719.927 324.553 720.728 316.52 720.728 316.52L768.279 328.489L766.663 348.333Z" fill="black"/>
<path id="Vector_40" d="M613.412 634.383L601.66 699.817C600.178 708.554 597.905 717.144 594.867 725.485C587.979 743.919 592.38 769.76 595.723 783.858C597.204 790.082 598.44 794.019 598.44 794.019L563.116 812.638L552.247 804.659V799.339L550.889 680.971C542.737 662.352 545.454 634.422 550.889 623.783C552.434 620.287 553.52 616.613 554.122 612.85C556.839 598.593 557.682 578.564 557.682 578.564C557.682 578.564 579.419 542.654 605.233 566.594C614.743 575.412 618.357 586.942 619.118 597.981C620.449 616.88 613.412 634.383 613.412 634.383Z" fill="#DB8B8B"/>
<path id="Vector_41" opacity="0.1" d="M619.118 597.941C600.274 608.9 567.491 611.999 554.122 612.81C556.839 598.553 557.682 578.524 557.682 578.524C557.682 578.524 579.419 542.615 605.233 566.554C614.743 575.372 618.357 586.903 619.118 597.941Z" fill="black"/>
<path id="Vector_42" d="M665.012 565.224C650.564 572.756 636.912 581.665 624.253 591.823C602.516 609.113 548.171 610.443 548.171 610.443V590.493C549.53 566.554 526.434 539.955 495.186 465.476C475.228 417.917 480.757 390.998 487.36 377.698C491.11 370.184 495.186 367.058 495.186 367.058L665.012 398.978L671.085 416.799L684.032 454.837C684.032 454.837 636.481 457.496 628.329 461.486C620.178 465.476 625.612 501.385 625.612 501.385C617.46 538.625 665.012 565.224 665.012 565.224Z" fill="#ABB1D1"/>
<path id="Vector_43" opacity="0.1" d="M768.266 328.489L766.663 348.333C743.023 354.982 726.149 333.809 726.149 333.809C723.683 334.456 721.26 335.251 718.894 336.19C719.913 324.553 720.715 316.52 720.715 316.52L768.266 328.489Z" fill="black"/>
<path id="Vector_44" opacity="0.1" d="M671.085 416.799C670.446 423.01 670.446 426.907 670.446 426.907C670.446 426.907 639.198 452.177 586.212 413.607C533.227 375.038 485.675 385.678 485.675 385.678C485.675 385.678 486.232 382.593 487.36 377.698C491.11 370.184 495.186 367.058 495.186 367.058L665.012 398.978L671.085 416.799Z" fill="black"/>
<path id="Vector_45" d="M786.58 276.554C783.034 303.619 781.852 337.733 781.852 337.733C750.604 361.672 726.149 331.083 726.149 331.083C696.64 338.837 682.769 364.119 676.234 386.183C672.734 398.118 670.789 410.438 670.446 422.851C670.446 422.851 662.186 429.501 646.969 430.831C632.582 432.014 611.958 428.344 586.212 409.551C533.227 370.982 485.675 381.622 485.675 381.622C485.675 381.622 495.186 328.423 516.923 312.463C538.661 296.504 554.964 276.554 582.137 215.375C609.309 154.197 665.012 168.826 665.012 168.826C665.012 168.826 667.729 156.857 717.997 168.826C730.241 171.968 741.574 177.845 751.107 185.996C777.994 208.127 791.036 242.454 786.58 276.554Z" fill="white"/>
<path id="Vector_46" d="M736.162 198.817C736.094 200.586 735.945 202.554 735.7 204.749C732.983 228.688 730.266 226.028 700.376 231.348C681.79 234.66 672.131 219.458 667.484 207.489C665.803 203.153 664.534 198.674 663.694 194.109L728.907 183.469C728.907 183.469 736.719 181.328 736.162 198.817Z" fill="#DB8B8B"/>
<path id="Vector_47" opacity="0.05" d="M676.234 386.25C672.734 398.185 670.789 410.505 670.446 422.917C670.446 422.917 662.186 429.567 646.969 430.897C646.541 430.05 646.212 429.157 645.991 428.237C643.274 416.267 622.895 394.988 622.895 394.988C609.309 383.018 606.591 361.739 606.591 361.739L584.174 297.235L576.702 291.25C576.702 291.25 607.95 267.311 635.122 287.26C662.294 307.21 654.143 349.769 654.143 349.769L659.577 364.399C665.215 369.053 670.949 377.259 676.234 386.25Z" fill="black"/>
<path id="Vector_48" d="M580.778 289.92L610.667 360.409C610.667 360.409 613.384 381.688 626.971 393.658C626.971 393.658 647.35 414.937 650.067 426.907C652.784 438.877 690.825 470.796 690.825 470.796C690.825 470.796 726.149 502.715 728.866 514.685C728.866 514.685 761.473 523.995 757.397 542.614C757.397 542.614 781.852 518.675 757.397 496.066C732.942 473.456 700.335 426.907 700.335 426.907C700.335 426.907 681.315 377.698 663.653 363.069L658.219 348.439C658.219 348.439 666.37 305.88 639.198 285.93C612.026 265.981 580.778 289.92 580.778 289.92Z" fill="#DB8B8B"/>
<path id="Vector_49" opacity="0.1" d="M598.44 793.979L563.116 812.599L552.247 804.619V799.299C564.453 798.45 576.312 794.947 586.96 789.045C590.22 787.236 593.291 785.454 595.75 783.884C597.176 790.042 598.44 793.979 598.44 793.979Z" fill="black"/>
<path id="Vector_50" opacity="0.1" d="M639.198 234.061L658.219 307.21C658.219 307.21 599.798 316.52 587.571 307.21C575.343 297.9 552.247 295.24 552.247 295.24C552.247 295.24 576.702 226.082 590.288 218.102C603.874 210.122 639.198 234.061 639.198 234.061Z" fill="black"/>
<path id="Vector_51" d="M639.198 231.402L658.219 304.55C658.219 304.55 599.798 313.86 587.571 304.55C575.343 295.24 552.247 292.58 552.247 292.58C552.247 292.58 576.702 223.422 590.288 215.442C603.874 207.462 639.198 231.402 639.198 231.402Z" fill="white"/>
<path id="Vector_52" opacity="0.1" d="M736.162 197.487C732.357 202.629 727.517 206.955 721.941 210.198C716.364 213.441 710.169 215.533 703.737 216.345C697.304 217.157 690.769 216.672 684.535 214.921C678.3 213.169 672.498 210.187 667.484 206.159C665.803 201.823 664.534 197.344 663.694 192.779L728.907 182.139C728.907 182.139 736.719 179.998 736.162 197.487Z" fill="black"/>
<path id="Vector_53" d="M745.17 168.893C745.17 181.238 740.16 193.078 731.242 201.808C722.324 210.538 710.23 215.442 697.618 215.442C685.007 215.442 672.912 210.538 663.994 201.808C655.077 193.078 650.067 181.238 650.067 168.893C650.067 168.122 650.067 167.35 650.067 166.579C650.38 154.233 655.691 142.515 664.83 134.003C673.969 125.49 686.189 120.88 698.8 121.187C711.412 121.494 723.382 126.692 732.078 135.639C740.774 144.586 745.483 156.547 745.17 168.893V168.893Z" fill="#DB8B8B"/>
<path id="Vector_54" opacity="0.1" d="M745.17 168.893C745.174 173.183 744.57 177.453 743.376 181.581C739.701 182.365 735.867 182.021 732.399 180.597C727.317 178.642 722.956 175.277 718.079 172.856C704.343 166.047 687.999 167.39 672.783 169.638C665.229 170.755 656.656 171.792 650.719 167.084C650.515 166.927 650.32 166.758 650.135 166.579C650.448 154.233 655.759 142.515 664.898 134.003C674.037 125.49 686.257 120.88 698.868 121.187C711.48 121.494 723.45 126.692 732.146 135.639C740.842 144.586 745.551 156.547 745.237 168.893H745.17Z" fill="black"/>
<path id="Vector_55" opacity="0.05" d="M523.037 311.865C523.037 311.865 558.361 321.175 569.23 345.114C580.099 369.053 609.499 373.429 609.499 373.429" fill="black"/>
<path id="Vector_56" d="M656.181 838.533H574.664V863.802H656.181V838.533Z" fill="#0097FF"/>
<path id="Vector_57" opacity="0.1" d="M656.181 838.533H574.664V863.802H656.181V838.533Z" fill="black"/>
<path id="Vector_58" d="M586.905 791.638C594.201 787.648 600.6 783.658 601.157 782.009C601.157 782.009 619.566 801.028 635.965 806.933C641.479 808.927 646.758 811.495 651.711 814.593C658.205 818.583 667.471 823.278 675.88 823.278C675.88 823.278 694.901 839.238 658.219 841.898C621.536 844.558 535.944 835.248 535.944 835.248L541.378 801.999C557.257 802.91 573.066 799.312 586.905 791.638Z" fill="#ABB1D1"/>
</g>
<g id="hat">
<path id="Vector_59" d="M620.373 139.549C623.267 148.434 637.165 148.713 644.298 155.256C648.007 158.661 649.732 163.688 653.808 166.721C659.474 170.95 667.652 170.019 674.867 169.008C689.39 166.987 704.987 165.776 718.084 171.908C722.73 174.075 726.901 177.108 731.752 178.877C736.602 180.646 742.62 180.858 746.56 177.72C749.712 175.206 750.867 171.07 753.72 168.303C755.935 166.122 759.019 164.899 761.546 162.983C767.089 158.887 769.48 152.211 771.056 145.827C774.317 132.687 775.254 118.523 769.698 106.061C764.141 93.5989 750.772 83.4513 736.181 84.103C731.711 84.3025 727.35 85.4329 722.894 85.9117C711.277 87.0688 699.797 83.2518 688.14 82.6001C684.759 82.1973 681.329 82.6554 678.182 83.9301C675.809 85.2213 673.762 87.0163 672.19 89.1834C666.853 96.0267 663.199 103.982 661.512 112.431C660.153 118.802 660.085 124.574 652.11 125.558C643.048 126.729 614.246 120.757 620.373 139.549Z" fill="#472727"/>
</g>
</g>
<defs>
<linearGradient id="paint0_linear" x1="1347.74" y1="194.176" x2="90.8347" y2="876.027" gradientUnits="userSpaceOnUse">
<stop stop-color="#3E5BC2"/>
<stop offset="0.796875" stop-color="#29DE66"/>
</linearGradient>
<linearGradient id="paint1_linear" x1="743.67" y1="-7.97983" x2="743.67" y2="1036.02" gradientUnits="userSpaceOnUse">
<stop stop-color="white"/>
<stop offset="1" stop-color="white" stop-opacity="0"/>
</linearGradient>
<clipPath id="clip0">
<rect width="1437" height="1044" fill="white"/>
</clipPath>
</defs>
</svg>
